<svg width="100%" height="auto" viewBox="0 0 800 600" xmlns="http://www.w3.org/2000/svg" xmlns:xlink="http://www.w3.org/1999/xlink"><rect width="800" height="600" fill="black"/><g transform="translate(0.00, 0.00)"><g transformOrigin="center" transform="scale(1.00, 1.00)"><g transformOrigin="center" transform="rotate(270.00, 50, 50)" opacity="1"><svg width="100" height="100" viewBox="0 0 100 100" fill="#222831" xmlns="http://www.w3.org/2000/svg"><circle cx="76.82820512820514" cy="21.65241025641026" r="16.239307692307694" stroke="current" stroke-width="4.22222" fill="current"/><circle cx="22.701589743589743" cy="75.78358974358974" r="16.239307692307694" stroke="current" stroke-width="4.22222" fill="current"/><rect x="60.58897435897436" y="59.54410256410257" width="32.47871794871795" height="32.47871794871795" stroke="current" stroke-width="4.22222" fill="current"/><rect x="6.4622820512820525" y="5.413102564102565" width="32.47871794871795" height="32.47871794871795" stroke="current" stroke-width="4.22222" fill="current"/></svg></g></g></g><g transform="translate(100.00, 0.00)"><g transformOrigin="center" transform="scale(1.00, 1.00)"><g transformOrigin="center" transform="rotate(90.00, 50, 50)" opacity="1"><svg width="100" height="100" viewBox="0 0 100 100" fill="#222831" xmlns="http://www.w3.org/2000/svg"><path d="M1.1513157894736843 10.855263157894738V0H98.84868421052633V10.855263157894738C77.13815789473685 10.855263157894738 60.85526315789474 27.138157894736842 60.85526315789474 43.42105263157895C60.85526315789474 59.703947368421055 77.13815789473685 75.98684210526316 98.84868421052633 75.98684210526316V86.8421052631579H1.1513157894736843V75.98684210526316C22.861868421052634 75.98684210526316 39.14473684210527 59.703947368421055 39.14473684210527 43.42105263157895C39.14473684210527 27.138157894736842 22.861868421052634 10.855263157894738 1.1513157894736843 10.855263157894738z" fill="current"/></svg></g></g></g><g transform="translate(200.00, 0.00)"><g transformOrigin="center" transform="scale(1.00, 1.00)"><g transformOrigin="center" transform="rotate(270.00, 50, 50)" opacity="1"><svg width="100" height="100" viewBox="0 0 100 100" fill="#393E46" xmlns="http://www.w3.org/2000/svg"><path d="M1.1513157894736843 10.855263157894738V0H98.84868421052633V10.855263157894738C77.13815789473685 10.855263157894738 60.85526315789474 27.138157894736842 60.85526315789474 43.42105263157895C60.85526315789474 59.703947368421055 77.13815789473685 75.98684210526316 98.84868421052633 75.98684210526316V86.8421052631579H1.1513157894736843V75.98684210526316C22.861868421052634 75.98684210526316 39.14473684210527 59.703947368421055 39.14473684210527 43.42105263157895C39.14473684210527 27.138157894736842 22.861868421052634 10.855263157894738 1.1513157894736843 10.855263157894738z" fill="current"/></svg></g></g></g><g transform="translate(300.00, 0.00)"><g transformOrigin="center" transform="scale(1.00, 1.00)"><g transformOrigin="center" transform="rotate(180.00, 50, 50)" opacity="1"><svg width="100" height="100" viewBox="0 0 100 100" fill="#686D76" xmlns="http://www.w3.org/2000/svg"><path d="M1.1513157894736843 10.855263157894738V0H98.84868421052633V10.855263157894738C77.13815789473685 10.855263157894738 60.85526315789474 27.138157894736842 60.85526315789474 43.42105263157895C60.85526315789474 59.703947368421055 77.13815789473685 75.98684210526316 98.84868421052633 75.98684210526316V86.8421052631579H1.1513157894736843V75.98684210526316C22.861868421052634 75.98684210526316 39.14473684210527 59.703947368421055 39.14473684210527 43.42105263157895C39.14473684210527 27.138157894736842 22.861868421052634 10.855263157894738 1.1513157894736843 10.855263157894738z" fill="current"/></svg></g></g></g><g transform="translate(400.00, 0.00)"><g transformOrigin="center" transform="scale(1.00, 1.00)"><g transformOrigin="center" transform="rotate(270.00, 50, 50)" opacity="1"><svg width="100" height="100" viewBox="0 0 100 100" fill="#686D76" xmlns="http://www.w3.org/2000/svg"><path d="M1.1513157894736843 10.855263157894738V0H98.84868421052633V10.855263157894738C77.13815789473685 10.855263157894738 60.85526315789474 27.138157894736842 60.85526315789474 43.42105263157895C60.85526315789474 59.703947368421055 77.13815789473685 75.98684210526316 98.84868421052633 75.98684210526316V86.8421052631579H1.1513157894736843V75.98684210526316C22.861868421052634 75.98684210526316 39.14473684210527 59.703947368421055 39.14473684210527 43.42105263157895C39.14473684210527 27.138157894736842 22.861868421052634 10.855263157894738 1.1513157894736843 10.855263157894738z" fill="current"/></svg></g></g></g><g transform="translate(500.00, 0.00)"><g transformOrigin="center" transform="scale(1.00, 1.00)"><g transformOrigin="center" transform="rotate(0.00, 50, 50)" opacity="1"><svg width="100" height="100" viewBox="0 0 100 100" fill="#393E46" xmlns="http://www.w3.org/2000/svg"><path d="M41.71473684210527 0H57.94263157894737L52.53342105263159 48.684210526315795H47.12394736842106L41.71473684210527 0z" fill="current"/><path d="M57.94605263157895 97.36842105263159L41.71815789473685 97.36842105263159L47.12736842105264 48.684210526315795L52.536842105263155 48.684210526315795L57.94605263157895 97.36842105263159z" fill="current"/><path d="M21.14515789473684 88.84657894736841L9.670157894736843 77.37157894736842L47.92 46.771578947368425L51.745000000000005 50.59657894736843L21.14515789473684 88.84657894736841z" fill="current"/><path d="M78.51815789473685 8.52184210526316L89.99315789473685 19.996815789473686L51.743157894736854 50.596842105263164L47.918157894736844 46.77184210526316L78.51815789473685 8.52184210526316z" fill="current"/><path d="M9.673105263157895 19.99663157894737L21.148078947368422 8.521657894736844L51.74815789473685 46.771578947368425L47.923157894736846 50.59657894736843L9.673105263157895 19.99663157894737z" fill="current"/><path d="M89.9978947368421 77.37184210526316L78.5228947368421 88.84684210526316L47.9228947368421 50.596842105263164L51.74789473684211 46.77184210526316L89.9978947368421 77.37184210526316z" fill="current"/><path d="M1.1513157894736843 56.798157894736846L1.1513157894736843 40.57026315789474L49.83552631578948 45.97947368421053L49.83552631578948 51.38894736842106L1.1513157894736843 56.798157894736846z" fill="current"/><path d="M98.51973684210527 40.57026315789474L98.51973684210527 56.79842105263159L49.83552631578948 51.38921052631579L49.83552631578948 45.97973684210527L98.51973684210527 40.57026315789474z" fill="current"/></svg></g></g></g><g transform="translate(600.00, 0.00)"><g transformOrigin="center" transform="scale(1.00, 1.00)"><g transformOrigin="center" transform="rotate(180.00, 50, 50)" opacity="1"><svg width="100" height="100" viewBox="0 0 100 100" fill="#222831" xmlns="http://www.w3.org/2000/svg"><path d="M49.91666666666667 54.014871794871794C34.025897435897434 54.014871794871794 28.728974358974362 66.42615384615385 28.728974358974362 75.2023076923077C28.728974358974362 83.97871794871796 34.025897435897434 96.39000000000001 49.916410256410266 96.39000000000001L86.9948717948718 96.39000000000001L86.9948717948718 80.49923076923078L49.916410256410266 80.49923076923078C46.991025641025644 80.49923076923078 44.6197435897436 78.12794871794873 44.6197435897436 75.2023076923077C44.6197435897436 72.27692307692308 46.991025641025644 69.90564102564103 49.916410256410266 69.90564102564103L76.40102564102564 69.90564102564103C86.9948717948718 69.90564102564103 97.58871794871797 64.60871794871795 97.58871794871797 48.71794871794872C97.58871794871797 32.82717948717949 86.46512820512822 27.530256410256413 76.40102564102564 27.530256410256413L23.432102564102564 27.530256410256413C20.506717948717952 27.530256410256413 18.13523076923077 25.158846153846156 18.13523076923077 22.233461538461537C18.13523076923077 19.308051282051284 20.506717948717952 16.936564102564105 23.432102564102564 16.936564102564105L63.15871794871796 16.936564102564105C67.54692307692308 16.936564102564105 71.10410256410256 13.379307692307693 71.10410256410256 8.991205128205129C71.10410256410256 4.603128205128206 67.54692307692308 1.0458717948717948 63.15871794871796 1.0458717948717948L23.432102564102564 1.0458717948717948C7.5414102564102565 1.0458717948717948 2.2445384615384616 13.457282051282052 2.2445384615384616 22.233461538461537C2.2445384615384616 31.009743589743593 7.5414102564102565 43.42102564102564 23.432102564102564 43.42102564102564L76.40102564102564 43.42102564102564C79.32641025641027 43.42102564102564 81.69794871794873 45.79256410256411 81.69794871794873 48.71794871794872C81.69794871794873 51.64333333333333 79.32641025641027 54.014871794871794 76.40102564102564 54.014871794871794L49.91666666666667 54.014871794871794z" fill="current"/></svg></g></g></g><g transform="translate(700.00, 0.00)"><g transformOrigin="center" transform="scale(1.00, 1.00)"><g transformOrigin="center" transform="rotate(90.00, 50, 50)" opacity="1"><svg width="100" height="100" viewBox="0 0 100 100" fill="#222831" xmlns="http://www.w3.org/2000/svg"><circle cx="76.82820512820514" cy="21.65241025641026" r="16.239307692307694" stroke="current" stroke-width="4.22222" fill="current"/><circle cx="22.701589743589743" cy="75.78358974358974" r="16.239307692307694" stroke="current" stroke-width="4.22222" fill="current"/><rect x="60.58897435897436" y="59.54410256410257" width="32.47871794871795" height="32.47871794871795" stroke="current" stroke-width="4.22222" fill="current"/><rect x="6.4622820512820525" y="5.413102564102565" width="32.47871794871795" height="32.47871794871795" stroke="current" stroke-width="4.22222" fill="current"/></svg></g></g></g><g transform="translate(0.00, 100.00)"><g transformOrigin="center" transform="scale(1.00, 1.00)"><g transformOrigin="center" transform="rotate(90.00, 50, 50)" opacity="1"><svg width="100" height="100" viewBox="0 0 100 100" fill="#393E46" xmlns="http://www.w3.org/2000/svg"><circle cx="76.82820512820514" cy="21.65241025641026" r="16.239307692307694" stroke="current" stroke-width="4.22222" fill="current"/><circle cx="22.701589743589743" cy="75.78358974358974" r="16.239307692307694" stroke="current" stroke-width="4.22222" fill="current"/><rect x="60.58897435897436" y="59.54410256410257" width="32.47871794871795" height="32.47871794871795" stroke="current" stroke-width="4.22222" fill="current"/><rect x="6.4622820512820525" y="5.413102564102565" width="32.47871794871795" height="32.47871794871795" stroke="current" stroke-width="4.22222" fill="current"/></svg></g></g></g><g transform="translate(100.00, 100.00)"><g transformOrigin="center" transform="scale(1.00, 1.00)"><g transformOrigin="center" transform="rotate(180.00, 50, 50)" opacity="1"><svg width="100" height="100" viewBox="0 0 100 100" fill="#222831" xmlns="http://www.w3.org/2000/svg"><path d="M41.71473684210527 0H57.94263157894737L52.53342105263159 48.684210526315795H47.12394736842106L41.71473684210527 0z" fill="current"/><path d="M57.94605263157895 97.36842105263159L41.71815789473685 97.36842105263159L47.12736842105264 48.684210526315795L52.536842105263155 48.684210526315795L57.94605263157895 97.36842105263159z" fill="current"/><path d="M21.14515789473684 88.84657894736841L9.670157894736843 77.37157894736842L47.92 46.771578947368425L51.745000000000005 50.59657894736843L21.14515789473684 88.84657894736841z" fill="current"/><path d="M78.51815789473685 8.52184210526316L89.99315789473685 19.996815789473686L51.743157894736854 50.596842105263164L47.918157894736844 46.77184210526316L78.51815789473685 8.52184210526316z" fill="current"/><path d="M9.673105263157895 19.99663157894737L21.148078947368422 8.521657894736844L51.74815789473685 46.771578947368425L47.923157894736846 50.59657894736843L9.673105263157895 19.99663157894737z" fill="current"/><path d="M89.9978947368421 77.37184210526316L78.5228947368421 88.84684210526316L47.9228947368421 50.596842105263164L51.74789473684211 46.77184210526316L89.9978947368421 77.37184210526316z" fill="current"/><path d="M1.1513157894736843 56.798157894736846L1.1513157894736843 40.57026315789474L49.83552631578948 45.97947368421053L49.83552631578948 51.38894736842106L1.1513157894736843 56.798157894736846z" fill="current"/><path d="M98.51973684210527 40.57026315789474L98.51973684210527 56.79842105263159L49.83552631578948 51.38921052631579L49.83552631578948 45.97973684210527L98.51973684210527 40.57026315789474z" fill="current"/></svg></g></g></g><g transform="translate(200.00, 100.00)"><g transformOrigin="center" transform="scale(1.00, 1.00)"><g transformOrigin="center" transform="rotate(90.00, 50, 50)" opacity="1"><svg width="100" height="100" viewBox="0 0 100 100" fill="#222831" xmlns="http://www.w3.org/2000/svg"><circle cx="76.82820512820514" cy="21.65241025641026" r="16.239307692307694" stroke="current" stroke-width="4.22222" fill="current"/><circle cx="22.701589743589743" cy="75.78358974358974" r="16.239307692307694" stroke="current" stroke-width="4.22222" fill="current"/><rect x="60.58897435897436" y="59.54410256410257" width="32.47871794871795" height="32.47871794871795" stroke="current" stroke-width="4.22222" fill="current"/><rect x="6.4622820512820525" y="5.413102564102565" width="32.47871794871795" height="32.47871794871795" stroke="current" stroke-width="4.22222" fill="current"/></svg></g></g></g><g transform="translate(300.00, 100.00)"><g transformOrigin="center" transform="scale(1.00, 1.00)"><g transformOrigin="center" transform="rotate(270.00, 50, 50)" opacity="1"><svg width="100" height="100" viewBox="0 0 100 100" fill="#686D76" xmlns="http://www.w3.org/2000/svg"><path d="M1.1513157894736843 10.855263157894738V0H98.84868421052633V10.855263157894738C77.13815789473685 10.855263157894738 60.85526315789474 27.138157894736842 60.85526315789474 43.42105263157895C60.85526315789474 59.703947368421055 77.13815789473685 75.98684210526316 98.84868421052633 75.98684210526316V86.8421052631579H1.1513157894736843V75.98684210526316C22.861868421052634 75.98684210526316 39.14473684210527 59.703947368421055 39.14473684210527 43.42105263157895C39.14473684210527 27.138157894736842 22.861868421052634 10.855263157894738 1.1513157894736843 10.855263157894738z" fill="current"/></svg></g></g></g><g transform="translate(400.00, 100.00)"><g transformOrigin="center" transform="scale(1.00, 1.00)"><g transformOrigin="center" transform="rotate(0.00, 50, 50)" opacity="1"><svg width="100" height="100" viewBox="0 0 100 100" fill="#222831" xmlns="http://www.w3.org/2000/svg"><path d="M41.71473684210527 0H57.94263157894737L52.53342105263159 48.684210526315795H47.12394736842106L41.71473684210527 0z" fill="current"/><path d="M57.94605263157895 97.36842105263159L41.71815789473685 97.36842105263159L47.12736842105264 48.684210526315795L52.536842105263155 48.684210526315795L57.94605263157895 97.36842105263159z" fill="current"/><path d="M21.14515789473684 88.84657894736841L9.670157894736843 77.37157894736842L47.92 46.771578947368425L51.745000000000005 50.59657894736843L21.14515789473684 88.84657894736841z" fill="current"/><path d="M78.51815789473685 8.52184210526316L89.99315789473685 19.996815789473686L51.743157894736854 50.596842105263164L47.918157894736844 46.77184210526316L78.51815789473685 8.52184210526316z" fill="current"/><path d="M9.673105263157895 19.99663157894737L21.148078947368422 8.521657894736844L51.74815789473685 46.771578947368425L47.923157894736846 50.59657894736843L9.673105263157895 19.99663157894737z" fill="current"/><path d="M89.9978947368421 77.37184210526316L78.5228947368421 88.84684210526316L47.9228947368421 50.596842105263164L51.74789473684211 46.77184210526316L89.9978947368421 77.37184210526316z" fill="current"/><path d="M1.1513157894736843 56.798157894736846L1.1513157894736843 40.57026315789474L49.83552631578948 45.97947368421053L49.83552631578948 51.38894736842106L1.1513157894736843 56.798157894736846z" fill="current"/><path d="M98.51973684210527 40.57026315789474L98.51973684210527 56.79842105263159L49.83552631578948 51.38921052631579L49.83552631578948 45.97973684210527L98.51973684210527 40.57026315789474z" fill="current"/></svg></g></g></g><g transform="translate(500.00, 100.00)"><g transformOrigin="center" transform="scale(1.00, 1.00)"><g transformOrigin="center" transform="rotate(0.00, 50, 50)" opacity="1"><svg width="100" height="100" viewBox="0 0 100 100" fill="#393E46" xmlns="http://www.w3.org/2000/svg"><path d="M49.91666666666667 54.014871794871794C34.025897435897434 54.014871794871794 28.728974358974362 66.42615384615385 28.728974358974362 75.2023076923077C28.728974358974362 83.97871794871796 34.025897435897434 96.39000000000001 49.916410256410266 96.39000000000001L86.9948717948718 96.39000000000001L86.9948717948718 80.49923076923078L49.916410256410266 80.49923076923078C46.991025641025644 80.49923076923078 44.6197435897436 78.12794871794873 44.6197435897436 75.2023076923077C44.6197435897436 72.27692307692308 46.991025641025644 69.90564102564103 49.916410256410266 69.90564102564103L76.40102564102564 69.90564102564103C86.9948717948718 69.90564102564103 97.58871794871797 64.60871794871795 97.58871794871797 48.71794871794872C97.58871794871797 32.82717948717949 86.46512820512822 27.530256410256413 76.40102564102564 27.530256410256413L23.432102564102564 27.530256410256413C20.506717948717952 27.530256410256413 18.13523076923077 25.158846153846156 18.13523076923077 22.233461538461537C18.13523076923077 19.308051282051284 20.506717948717952 16.936564102564105 23.432102564102564 16.936564102564105L63.15871794871796 16.936564102564105C67.54692307692308 16.936564102564105 71.10410256410256 13.379307692307693 71.10410256410256 8.991205128205129C71.10410256410256 4.603128205128206 67.54692307692308 1.0458717948717948 63.15871794871796 1.0458717948717948L23.432102564102564 1.0458717948717948C7.5414102564102565 1.0458717948717948 2.2445384615384616 13.457282051282052 2.2445384615384616 22.233461538461537C2.2445384615384616 31.009743589743593 7.5414102564102565 43.42102564102564 23.432102564102564 43.42102564102564L76.40102564102564 43.42102564102564C79.32641025641027 43.42102564102564 81.69794871794873 45.79256410256411 81.69794871794873 48.71794871794872C81.69794871794873 51.64333333333333 79.32641025641027 54.014871794871794 76.40102564102564 54.014871794871794L49.91666666666667 54.014871794871794z" fill="current"/></svg></g></g></g><g transform="translate(600.00, 100.00)"><g transformOrigin="center" transform="scale(1.00, 1.00)"><g transformOrigin="center" transform="rotate(180.00, 50, 50)" opacity="1"><svg width="100" height="100" viewBox="0 0 100 100" fill="#686D76" xmlns="http://www.w3.org/2000/svg"><path d="M49.91666666666667 54.014871794871794C34.025897435897434 54.014871794871794 28.728974358974362 66.42615384615385 28.728974358974362 75.2023076923077C28.728974358974362 83.97871794871796 34.025897435897434 96.39000000000001 49.916410256410266 96.39000000000001L86.9948717948718 96.39000000000001L86.9948717948718 80.49923076923078L49.916410256410266 80.49923076923078C46.991025641025644 80.49923076923078 44.6197435897436 78.12794871794873 44.6197435897436 75.2023076923077C44.6197435897436 72.27692307692308 46.991025641025644 69.90564102564103 49.916410256410266 69.90564102564103L76.40102564102564 69.90564102564103C86.9948717948718 69.90564102564103 97.58871794871797 64.60871794871795 97.58871794871797 48.71794871794872C97.58871794871797 32.82717948717949 86.46512820512822 27.530256410256413 76.40102564102564 27.530256410256413L23.432102564102564 27.530256410256413C20.506717948717952 27.530256410256413 18.13523076923077 25.158846153846156 18.13523076923077 22.233461538461537C18.13523076923077 19.308051282051284 20.506717948717952 16.936564102564105 23.432102564102564 16.936564102564105L63.15871794871796 16.936564102564105C67.54692307692308 16.936564102564105 71.10410256410256 13.379307692307693 71.10410256410256 8.991205128205129C71.10410256410256 4.603128205128206 67.54692307692308 1.0458717948717948 63.15871794871796 1.0458717948717948L23.432102564102564 1.0458717948717948C7.5414102564102565 1.0458717948717948 2.2445384615384616 13.457282051282052 2.2445384615384616 22.233461538461537C2.2445384615384616 31.009743589743593 7.5414102564102565 43.42102564102564 23.432102564102564 43.42102564102564L76.40102564102564 43.42102564102564C79.32641025641027 43.42102564102564 81.69794871794873 45.79256410256411 81.69794871794873 48.71794871794872C81.69794871794873 51.64333333333333 79.32641025641027 54.014871794871794 76.40102564102564 54.014871794871794L49.91666666666667 54.014871794871794z" fill="current"/></svg></g></g></g><g transform="translate(700.00, 100.00)"><g transformOrigin="center" transform="scale(1.00, 1.00)"><g transformOrigin="center" transform="rotate(270.00, 50, 50)" opacity="1"><svg width="100" height="100" viewBox="0 0 100 100" fill="#222831" xmlns="http://www.w3.org/2000/svg"><circle cx="76.82820512820514" cy="21.65241025641026" r="16.239307692307694" stroke="current" stroke-width="4.22222" fill="current"/><circle cx="22.701589743589743" cy="75.78358974358974" r="16.239307692307694" stroke="current" stroke-width="4.22222" fill="current"/><rect x="60.58897435897436" y="59.54410256410257" width="32.47871794871795" height="32.47871794871795" stroke="current" stroke-width="4.22222" fill="current"/><rect x="6.4622820512820525" y="5.413102564102565" width="32.47871794871795" height="32.47871794871795" stroke="current" stroke-width="4.22222" fill="current"/></svg></g></g></g><g transform="translate(0.00, 200.00)"><g transformOrigin="center" transform="scale(1.00, 1.00)"><g transformOrigin="center" transform="rotate(90.00, 50, 50)" opacity="1"><svg width="100" height="100" viewBox="0 0 100 100" fill="#222831" xmlns="http://www.w3.org/2000/svg"><path d="M41.71473684210527 0H57.94263157894737L52.53342105263159 48.684210526315795H47.12394736842106L41.71473684210527 0z" fill="current"/><path d="M57.94605263157895 97.36842105263159L41.71815789473685 97.36842105263159L47.12736842105264 48.684210526315795L52.536842105263155 48.684210526315795L57.94605263157895 97.36842105263159z" fill="current"/><path d="M21.14515789473684 88.84657894736841L9.670157894736843 77.37157894736842L47.92 46.771578947368425L51.745000000000005 50.59657894736843L21.14515789473684 88.84657894736841z" fill="current"/><path d="M78.51815789473685 8.52184210526316L89.99315789473685 19.996815789473686L51.743157894736854 50.596842105263164L47.918157894736844 46.77184210526316L78.51815789473685 8.52184210526316z" fill="current"/><path d="M9.673105263157895 19.99663157894737L21.148078947368422 8.521657894736844L51.74815789473685 46.771578947368425L47.923157894736846 50.59657894736843L9.673105263157895 19.99663157894737z" fill="current"/><path d="M89.9978947368421 77.37184210526316L78.5228947368421 88.84684210526316L47.9228947368421 50.596842105263164L51.74789473684211 46.77184210526316L89.9978947368421 77.37184210526316z" fill="current"/><path d="M1.1513157894736843 56.798157894736846L1.1513157894736843 40.57026315789474L49.83552631578948 45.97947368421053L49.83552631578948 51.38894736842106L1.1513157894736843 56.798157894736846z" fill="current"/><path d="M98.51973684210527 40.57026315789474L98.51973684210527 56.79842105263159L49.83552631578948 51.38921052631579L49.83552631578948 45.97973684210527L98.51973684210527 40.57026315789474z" fill="current"/></svg></g></g></g><g transform="translate(100.00, 200.00)"><g transformOrigin="center" transform="scale(1.00, 1.00)"><g transformOrigin="center" transform="rotate(0.00, 50, 50)" opacity="1"><svg width="100" height="100" viewBox="0 0 100 100" fill="#393E46" xmlns="http://www.w3.org/2000/svg"><path d="M17.322108108108107 -0.0000035441621621621624L60.5654054054054 -0.000001653943243243243L98.40324324324324 27.027027027027025L44.34918918918918 64.86486486486487L82.18702702702701 97.29729729729729L38.943783783783786 97.29729729729729L1.105889189189189 64.86486486486487L55.16 27.027027027027025L17.322108108108107 -0.0000035441621621621624z" fill="current"/></svg></g></g></g><g transform="translate(200.00, 200.00)"><g transformOrigin="center" transform="scale(1.00, 1.00)"><g transformOrigin="center" transform="rotate(90.00, 50, 50)" opacity="1"><svg width="100" height="100" viewBox="0 0 100 100" fill="#222831" xmlns="http://www.w3.org/2000/svg"><path d="M17.322108108108107 -0.0000035441621621621624L60.5654054054054 -0.000001653943243243243L98.40324324324324 27.027027027027025L44.34918918918918 64.86486486486487L82.18702702702701 97.29729729729729L38.943783783783786 97.29729729729729L1.105889189189189 64.86486486486487L55.16 27.027027027027025L17.322108108108107 -0.0000035441621621621624z" fill="current"/></svg></g></g></g><g transform="translate(300.00, 200.00)"><g transformOrigin="center" transform="scale(1.00, 1.00)"><g transformOrigin="center" transform="rotate(90.00, 50, 50)" opacity="1"><svg width="100" height="100" viewBox="0 0 100 100" fill="#222831" xmlns="http://www.w3.org/2000/svg"><path d="M1.1513157894736843 10.855263157894738V0H98.84868421052633V10.855263157894738C77.13815789473685 10.855263157894738 60.85526315789474 27.138157894736842 60.85526315789474 43.42105263157895C60.85526315789474 59.703947368421055 77.13815789473685 75.98684210526316 98.84868421052633 75.98684210526316V86.8421052631579H1.1513157894736843V75.98684210526316C22.861868421052634 75.98684210526316 39.14473684210527 59.703947368421055 39.14473684210527 43.42105263157895C39.14473684210527 27.138157894736842 22.861868421052634 10.855263157894738 1.1513157894736843 10.855263157894738z" fill="current"/></svg></g></g></g><g transform="translate(400.00, 200.00)"><g transformOrigin="center" transform="scale(1.00, 1.00)"><g transformOrigin="center" transform="rotate(180.00, 50, 50)" opacity="1"><svg width="100" height="100" viewBox="0 0 100 100" fill="#686D76" xmlns="http://www.w3.org/2000/svg"><path d="M49.91666666666667 54.014871794871794C34.025897435897434 54.014871794871794 28.728974358974362 66.42615384615385 28.728974358974362 75.2023076923077C28.728974358974362 83.97871794871796 34.025897435897434 96.39000000000001 49.916410256410266 96.39000000000001L86.9948717948718 96.39000000000001L86.9948717948718 80.49923076923078L49.916410256410266 80.49923076923078C46.991025641025644 80.49923076923078 44.6197435897436 78.12794871794873 44.6197435897436 75.2023076923077C44.6197435897436 72.27692307692308 46.991025641025644 69.90564102564103 49.916410256410266 69.90564102564103L76.40102564102564 69.90564102564103C86.9948717948718 69.90564102564103 97.58871794871797 64.60871794871795 97.58871794871797 48.71794871794872C97.58871794871797 32.82717948717949 86.46512820512822 27.530256410256413 76.40102564102564 27.530256410256413L23.432102564102564 27.530256410256413C20.506717948717952 27.530256410256413 18.13523076923077 25.158846153846156 18.13523076923077 22.233461538461537C18.13523076923077 19.308051282051284 20.506717948717952 16.936564102564105 23.432102564102564 16.936564102564105L63.15871794871796 16.936564102564105C67.54692307692308 16.936564102564105 71.10410256410256 13.379307692307693 71.10410256410256 8.991205128205129C71.10410256410256 4.603128205128206 67.54692307692308 1.0458717948717948 63.15871794871796 1.0458717948717948L23.432102564102564 1.0458717948717948C7.5414102564102565 1.0458717948717948 2.2445384615384616 13.457282051282052 2.2445384615384616 22.233461538461537C2.2445384615384616 31.009743589743593 7.5414102564102565 43.42102564102564 23.432102564102564 43.42102564102564L76.40102564102564 43.42102564102564C79.32641025641027 43.42102564102564 81.69794871794873 45.79256410256411 81.69794871794873 48.71794871794872C81.69794871794873 51.64333333333333 79.32641025641027 54.014871794871794 76.40102564102564 54.014871794871794L49.91666666666667 54.014871794871794z" fill="current"/></svg></g></g></g><g transform="translate(500.00, 200.00)"><g transformOrigin="center" transform="scale(1.00, 1.00)"><g transformOrigin="center" transform="rotate(0.00, 50, 50)" opacity="1"><svg width="100" height="100" viewBox="0 0 100 100" fill="#686D76" xmlns="http://www.w3.org/2000/svg"><path d="M49.083421052631586 12.335105263157896L88.71473684210527 82.79078947368421H9.452L49.083421052631586 12.335105263157896z" stroke="current" stroke-width="4.13158" fill="current"/><path d="M61.041842105263164 66.4821052631579H37.1221052631579L49.0821052631579 44.7371052631579L61.041842105263164 66.4821052631579z" fill="current"/></svg></g></g></g><g transform="translate(600.00, 200.00)"><g transformOrigin="center" transform="scale(1.00, 1.00)"><g transformOrigin="center" transform="rotate(90.00, 50, 50)" opacity="1"><svg width="100" height="100" viewBox="0 0 100 100" fill="#222831" xmlns="http://www.w3.org/2000/svg"><path d="M17.322108108108107 -0.0000035441621621621624L60.5654054054054 -0.000001653943243243243L98.40324324324324 27.027027027027025L44.34918918918918 64.86486486486487L82.18702702702701 97.29729729729729L38.943783783783786 97.29729729729729L1.105889189189189 64.86486486486487L55.16 27.027027027027025L17.322108108108107 -0.0000035441621621621624z" fill="current"/></svg></g></g></g><g transform="translate(700.00, 200.00)"><g transformOrigin="center" transform="scale(1.00, 1.00)"><g transformOrigin="center" transform="rotate(180.00, 50, 50)" opacity="1"><svg width="100" height="100" viewBox="0 0 100 100" fill="#686D76" xmlns="http://www.w3.org/2000/svg"><path d="M41.71473684210527 0H57.94263157894737L52.53342105263159 48.684210526315795H47.12394736842106L41.71473684210527 0z" fill="current"/><path d="M57.94605263157895 97.36842105263159L41.71815789473685 97.36842105263159L47.12736842105264 48.684210526315795L52.536842105263155 48.684210526315795L57.94605263157895 97.36842105263159z" fill="current"/><path d="M21.14515789473684 88.84657894736841L9.670157894736843 77.37157894736842L47.92 46.771578947368425L51.745000000000005 50.59657894736843L21.14515789473684 88.84657894736841z" fill="current"/><path d="M78.51815789473685 8.52184210526316L89.99315789473685 19.996815789473686L51.743157894736854 50.596842105263164L47.918157894736844 46.77184210526316L78.51815789473685 8.52184210526316z" fill="current"/><path d="M9.673105263157895 19.99663157894737L21.148078947368422 8.521657894736844L51.74815789473685 46.771578947368425L47.923157894736846 50.59657894736843L9.673105263157895 19.99663157894737z" fill="current"/><path d="M89.9978947368421 77.37184210526316L78.5228947368421 88.84684210526316L47.9228947368421 50.596842105263164L51.74789473684211 46.77184210526316L89.9978947368421 77.37184210526316z" fill="current"/><path d="M1.1513157894736843 56.798157894736846L1.1513157894736843 40.57026315789474L49.83552631578948 45.97947368421053L49.83552631578948 51.38894736842106L1.1513157894736843 56.798157894736846z" fill="current"/><path d="M98.51973684210527 40.57026315789474L98.51973684210527 56.79842105263159L49.83552631578948 51.38921052631579L49.83552631578948 45.97973684210527L98.51973684210527 40.57026315789474z" fill="current"/></svg></g></g></g><g transform="translate(0.00, 300.00)"><g transformOrigin="center" transform="scale(1.00, 1.00)"><g transformOrigin="center" transform="rotate(90.00, 50, 50)" opacity="1"><svg width="100" height="100" viewBox="0 0 100 100" fill="#393E46" xmlns="http://www.w3.org/2000/svg"><path d="M1.1513157894736843 10.855263157894738V0H98.84868421052633V10.855263157894738C77.13815789473685 10.855263157894738 60.85526315789474 27.138157894736842 60.85526315789474 43.42105263157895C60.85526315789474 59.703947368421055 77.13815789473685 75.98684210526316 98.84868421052633 75.98684210526316V86.8421052631579H1.1513157894736843V75.98684210526316C22.861868421052634 75.98684210526316 39.14473684210527 59.703947368421055 39.14473684210527 43.42105263157895C39.14473684210527 27.138157894736842 22.861868421052634 10.855263157894738 1.1513157894736843 10.855263157894738z" fill="current"/></svg></g></g></g><g transform="translate(100.00, 300.00)"><g transformOrigin="center" transform="scale(1.00, 1.00)"><g transformOrigin="center" transform="rotate(270.00, 50, 50)" opacity="1"><svg width="100" height="100" viewBox="0 0 100 100" fill="#686D76" xmlns="http://www.w3.org/2000/svg"><path d="M49.91666666666667 54.014871794871794C34.025897435897434 54.014871794871794 28.728974358974362 66.42615384615385 28.728974358974362 75.2023076923077C28.728974358974362 83.97871794871796 34.025897435897434 96.39000000000001 49.916410256410266 96.39000000000001L86.9948717948718 96.39000000000001L86.9948717948718 80.49923076923078L49.916410256410266 80.49923076923078C46.991025641025644 80.49923076923078 44.6197435897436 78.12794871794873 44.6197435897436 75.2023076923077C44.6197435897436 72.27692307692308 46.991025641025644 69.90564102564103 49.916410256410266 69.90564102564103L76.40102564102564 69.90564102564103C86.9948717948718 69.90564102564103 97.58871794871797 64.60871794871795 97.58871794871797 48.71794871794872C97.58871794871797 32.82717948717949 86.46512820512822 27.530256410256413 76.40102564102564 27.530256410256413L23.432102564102564 27.530256410256413C20.506717948717952 27.530256410256413 18.13523076923077 25.158846153846156 18.13523076923077 22.233461538461537C18.13523076923077 19.308051282051284 20.506717948717952 16.936564102564105 23.432102564102564 16.936564102564105L63.15871794871796 16.936564102564105C67.54692307692308 16.936564102564105 71.10410256410256 13.379307692307693 71.10410256410256 8.991205128205129C71.10410256410256 4.603128205128206 67.54692307692308 1.0458717948717948 63.15871794871796 1.0458717948717948L23.432102564102564 1.0458717948717948C7.5414102564102565 1.0458717948717948 2.2445384615384616 13.457282051282052 2.2445384615384616 22.233461538461537C2.2445384615384616 31.009743589743593 7.5414102564102565 43.42102564102564 23.432102564102564 43.42102564102564L76.40102564102564 43.42102564102564C79.32641025641027 43.42102564102564 81.69794871794873 45.79256410256411 81.69794871794873 48.71794871794872C81.69794871794873 51.64333333333333 79.32641025641027 54.014871794871794 76.40102564102564 54.014871794871794L49.91666666666667 54.014871794871794z" fill="current"/></svg></g></g></g><g transform="translate(200.00, 300.00)"><g transformOrigin="center" transform="scale(1.00, 1.00)"><g transformOrigin="center" transform="rotate(180.00, 50, 50)" opacity="1"><svg width="100" height="100" viewBox="0 0 100 100" fill="#686D76" xmlns="http://www.w3.org/2000/svg"><path d="M1.1513157894736843 10.855263157894738V0H98.84868421052633V10.855263157894738C77.13815789473685 10.855263157894738 60.85526315789474 27.138157894736842 60.85526315789474 43.42105263157895C60.85526315789474 59.703947368421055 77.13815789473685 75.98684210526316 98.84868421052633 75.98684210526316V86.8421052631579H1.1513157894736843V75.98684210526316C22.861868421052634 75.98684210526316 39.14473684210527 59.703947368421055 39.14473684210527 43.42105263157895C39.14473684210527 27.138157894736842 22.861868421052634 10.855263157894738 1.1513157894736843 10.855263157894738z" fill="current"/></svg></g></g></g><g transform="translate(300.00, 300.00)"><g transformOrigin="center" transform="scale(1.00, 1.00)"><g transformOrigin="center" transform="rotate(270.00, 50, 50)" opacity="1"><svg width="100" height="100" viewBox="0 0 100 100" fill="#393E46" xmlns="http://www.w3.org/2000/svg"><path d="M49.083421052631586 12.335105263157896L88.71473684210527 82.79078947368421H9.452L49.083421052631586 12.335105263157896z" stroke="current" stroke-width="4.13158" fill="current"/><path d="M61.041842105263164 66.4821052631579H37.1221052631579L49.0821052631579 44.7371052631579L61.041842105263164 66.4821052631579z" fill="current"/></svg></g></g></g><g transform="translate(400.00, 300.00)"><g transformOrigin="center" transform="scale(1.00, 1.00)"><g transformOrigin="center" transform="rotate(90.00, 50, 50)" opacity="1"><svg width="100" height="100" viewBox="0 0 100 100" fill="#686D76" xmlns="http://www.w3.org/2000/svg"><path d="M49.91666666666667 54.014871794871794C34.025897435897434 54.014871794871794 28.728974358974362 66.42615384615385 28.728974358974362 75.2023076923077C28.728974358974362 83.97871794871796 34.025897435897434 96.39000000000001 49.916410256410266 96.39000000000001L86.9948717948718 96.39000000000001L86.9948717948718 80.49923076923078L49.916410256410266 80.49923076923078C46.991025641025644 80.49923076923078 44.6197435897436 78.12794871794873 44.6197435897436 75.2023076923077C44.6197435897436 72.27692307692308 46.991025641025644 69.90564102564103 49.916410256410266 69.90564102564103L76.40102564102564 69.90564102564103C86.9948717948718 69.90564102564103 97.58871794871797 64.60871794871795 97.58871794871797 48.71794871794872C97.58871794871797 32.82717948717949 86.46512820512822 27.530256410256413 76.40102564102564 27.530256410256413L23.432102564102564 27.530256410256413C20.506717948717952 27.530256410256413 18.13523076923077 25.158846153846156 18.13523076923077 22.233461538461537C18.13523076923077 19.308051282051284 20.506717948717952 16.936564102564105 23.432102564102564 16.936564102564105L63.15871794871796 16.936564102564105C67.54692307692308 16.936564102564105 71.10410256410256 13.379307692307693 71.10410256410256 8.991205128205129C71.10410256410256 4.603128205128206 67.54692307692308 1.0458717948717948 63.15871794871796 1.0458717948717948L23.432102564102564 1.0458717948717948C7.5414102564102565 1.0458717948717948 2.2445384615384616 13.457282051282052 2.2445384615384616 22.233461538461537C2.2445384615384616 31.009743589743593 7.5414102564102565 43.42102564102564 23.432102564102564 43.42102564102564L76.40102564102564 43.42102564102564C79.32641025641027 43.42102564102564 81.69794871794873 45.79256410256411 81.69794871794873 48.71794871794872C81.69794871794873 51.64333333333333 79.32641025641027 54.014871794871794 76.40102564102564 54.014871794871794L49.91666666666667 54.014871794871794z" fill="current"/></svg></g></g></g><g transform="translate(500.00, 300.00)"><g transformOrigin="center" transform="scale(1.00, 1.00)"><g transformOrigin="center" transform="rotate(180.00, 50, 50)" opacity="1"><svg width="100" height="100" viewBox="0 0 100 100" fill="#393E46" xmlns="http://www.w3.org/2000/svg"><path d="M41.71473684210527 0H57.94263157894737L52.53342105263159 48.684210526315795H47.12394736842106L41.71473684210527 0z" fill="current"/><path d="M57.94605263157895 97.36842105263159L41.71815789473685 97.36842105263159L47.12736842105264 48.684210526315795L52.536842105263155 48.684210526315795L57.94605263157895 97.36842105263159z" fill="current"/><path d="M21.14515789473684 88.84657894736841L9.670157894736843 77.37157894736842L47.92 46.771578947368425L51.745000000000005 50.59657894736843L21.14515789473684 88.84657894736841z" fill="current"/><path d="M78.51815789473685 8.52184210526316L89.99315789473685 19.996815789473686L51.743157894736854 50.596842105263164L47.918157894736844 46.77184210526316L78.51815789473685 8.52184210526316z" fill="current"/><path d="M9.673105263157895 19.99663157894737L21.148078947368422 8.521657894736844L51.74815789473685 46.771578947368425L47.923157894736846 50.59657894736843L9.673105263157895 19.99663157894737z" fill="current"/><path d="M89.9978947368421 77.37184210526316L78.5228947368421 88.84684210526316L47.9228947368421 50.596842105263164L51.74789473684211 46.77184210526316L89.9978947368421 77.37184210526316z" fill="current"/><path d="M1.1513157894736843 56.798157894736846L1.1513157894736843 40.57026315789474L49.83552631578948 45.97947368421053L49.83552631578948 51.38894736842106L1.1513157894736843 56.798157894736846z" fill="current"/><path d="M98.51973684210527 40.57026315789474L98.51973684210527 56.79842105263159L49.83552631578948 51.38921052631579L49.83552631578948 45.97973684210527L98.51973684210527 40.57026315789474z" fill="current"/></svg></g></g></g><g transform="translate(600.00, 300.00)"><g transformOrigin="center" transform="scale(1.00, 1.00)"><g transformOrigin="center" transform="rotate(90.00, 50, 50)" opacity="1"><svg width="100" height="100" viewBox="0 0 100 100" fill="#686D76" xmlns="http://www.w3.org/2000/svg"><path d="M49.083421052631586 12.335105263157896L88.71473684210527 82.79078947368421H9.452L49.083421052631586 12.335105263157896z" stroke="current" stroke-width="4.13158" fill="current"/><path d="M61.041842105263164 66.4821052631579H37.1221052631579L49.0821052631579 44.7371052631579L61.041842105263164 66.4821052631579z" fill="current"/></svg></g></g></g><g transform="translate(700.00, 300.00)"><g transformOrigin="center" transform="scale(1.00, 1.00)"><g transformOrigin="center" transform="rotate(270.00, 50, 50)" opacity="1"><svg width="100" height="100" viewBox="0 0 100 100" fill="#393E46" xmlns="http://www.w3.org/2000/svg"><path d="M49.083421052631586 12.335105263157896L88.71473684210527 82.79078947368421H9.452L49.083421052631586 12.335105263157896z" stroke="current" stroke-width="4.13158" fill="current"/><path d="M61.041842105263164 66.4821052631579H37.1221052631579L49.0821052631579 44.7371052631579L61.041842105263164 66.4821052631579z" fill="current"/></svg></g></g></g><g transform="translate(0.00, 400.00)"><g transformOrigin="center" transform="scale(1.00, 1.00)"><g transformOrigin="center" transform="rotate(180.00, 50, 50)" opacity="1"><svg width="100" height="100" viewBox="0 0 100 100" fill="#222831" xmlns="http://www.w3.org/2000/svg"><path d="M17.322108108108107 -0.0000035441621621621624L60.5654054054054 -0.000001653943243243243L98.40324324324324 27.027027027027025L44.34918918918918 64.86486486486487L82.18702702702701 97.29729729729729L38.943783783783786 97.29729729729729L1.105889189189189 64.86486486486487L55.16 27.027027027027025L17.322108108108107 -0.0000035441621621621624z" fill="current"/></svg></g></g></g><g transform="translate(100.00, 400.00)"><g transformOrigin="center" transform="scale(1.00, 1.00)"><g transformOrigin="center" transform="rotate(0.00, 50, 50)" opacity="1"><svg width="100" height="100" viewBox="0 0 100 100" fill="#393E46" xmlns="http://www.w3.org/2000/svg"><circle cx="76.82820512820514" cy="21.65241025641026" r="16.239307692307694" stroke="current" stroke-width="4.22222" fill="current"/><circle cx="22.701589743589743" cy="75.78358974358974" r="16.239307692307694" stroke="current" stroke-width="4.22222" fill="current"/><rect x="60.58897435897436" y="59.54410256410257" width="32.47871794871795" height="32.47871794871795" stroke="current" stroke-width="4.22222" fill="current"/><rect x="6.4622820512820525" y="5.413102564102565" width="32.47871794871795" height="32.47871794871795" stroke="current" stroke-width="4.22222" fill="current"/></svg></g></g></g><g transform="translate(200.00, 400.00)"><g transformOrigin="center" transform="scale(1.00, 1.00)"><g transformOrigin="center" transform="rotate(90.00, 50, 50)" opacity="1"><svg width="100" height="100" viewBox="0 0 100 100" fill="#393E46" xmlns="http://www.w3.org/2000/svg"><path d="M49.083421052631586 12.335105263157896L88.71473684210527 82.79078947368421H9.452L49.083421052631586 12.335105263157896z" stroke="current" stroke-width="4.13158" fill="current"/><path d="M61.041842105263164 66.4821052631579H37.1221052631579L49.0821052631579 44.7371052631579L61.041842105263164 66.4821052631579z" fill="current"/></svg></g></g></g><g transform="translate(300.00, 400.00)"><g transformOrigin="center" transform="scale(1.00, 1.00)"><g transformOrigin="center" transform="rotate(90.00, 50, 50)" opacity="1"><svg width="100" height="100" viewBox="0 0 100 100" fill="#222831" xmlns="http://www.w3.org/2000/svg"><path d="M49.91666666666667 54.014871794871794C34.025897435897434 54.014871794871794 28.728974358974362 66.42615384615385 28.728974358974362 75.2023076923077C28.728974358974362 83.97871794871796 34.025897435897434 96.39000000000001 49.916410256410266 96.39000000000001L86.9948717948718 96.39000000000001L86.9948717948718 80.49923076923078L49.916410256410266 80.49923076923078C46.991025641025644 80.49923076923078 44.6197435897436 78.12794871794873 44.6197435897436 75.2023076923077C44.6197435897436 72.27692307692308 46.991025641025644 69.90564102564103 49.916410256410266 69.90564102564103L76.40102564102564 69.90564102564103C86.9948717948718 69.90564102564103 97.58871794871797 64.60871794871795 97.58871794871797 48.71794871794872C97.58871794871797 32.82717948717949 86.46512820512822 27.530256410256413 76.40102564102564 27.530256410256413L23.432102564102564 27.530256410256413C20.506717948717952 27.530256410256413 18.13523076923077 25.158846153846156 18.13523076923077 22.233461538461537C18.13523076923077 19.308051282051284 20.506717948717952 16.936564102564105 23.432102564102564 16.936564102564105L63.15871794871796 16.936564102564105C67.54692307692308 16.936564102564105 71.10410256410256 13.379307692307693 71.10410256410256 8.991205128205129C71.10410256410256 4.603128205128206 67.54692307692308 1.0458717948717948 63.15871794871796 1.0458717948717948L23.432102564102564 1.0458717948717948C7.5414102564102565 1.0458717948717948 2.2445384615384616 13.457282051282052 2.2445384615384616 22.233461538461537C2.2445384615384616 31.009743589743593 7.5414102564102565 43.42102564102564 23.432102564102564 43.42102564102564L76.40102564102564 43.42102564102564C79.32641025641027 43.42102564102564 81.69794871794873 45.79256410256411 81.69794871794873 48.71794871794872C81.69794871794873 51.64333333333333 79.32641025641027 54.014871794871794 76.40102564102564 54.014871794871794L49.91666666666667 54.014871794871794z" fill="current"/></svg></g></g></g><g transform="translate(400.00, 400.00)"><g transformOrigin="center" transform="scale(1.00, 1.00)"><g transformOrigin="center" transform="rotate(90.00, 50, 50)" opacity="1"><svg width="100" height="100" viewBox="0 0 100 100" fill="#222831" xmlns="http://www.w3.org/2000/svg"><path d="M49.083421052631586 12.335105263157896L88.71473684210527 82.79078947368421H9.452L49.083421052631586 12.335105263157896z" stroke="current" stroke-width="4.13158" fill="current"/><path d="M61.041842105263164 66.4821052631579H37.1221052631579L49.0821052631579 44.7371052631579L61.041842105263164 66.4821052631579z" fill="current"/></svg></g></g></g><g transform="translate(500.00, 400.00)"><g transformOrigin="center" transform="scale(1.00, 1.00)"><g transformOrigin="center" transform="rotate(0.00, 50, 50)" opacity="1"><svg width="100" height="100" viewBox="0 0 100 100" fill="#686D76" xmlns="http://www.w3.org/2000/svg"><path d="M49.91666666666667 54.014871794871794C34.025897435897434 54.014871794871794 28.728974358974362 66.42615384615385 28.728974358974362 75.2023076923077C28.728974358974362 83.97871794871796 34.025897435897434 96.39000000000001 49.916410256410266 96.39000000000001L86.9948717948718 96.39000000000001L86.9948717948718 80.49923076923078L49.916410256410266 80.49923076923078C46.991025641025644 80.49923076923078 44.6197435897436 78.12794871794873 44.6197435897436 75.2023076923077C44.6197435897436 72.27692307692308 46.991025641025644 69.90564102564103 49.916410256410266 69.90564102564103L76.40102564102564 69.90564102564103C86.9948717948718 69.90564102564103 97.58871794871797 64.60871794871795 97.58871794871797 48.71794871794872C97.58871794871797 32.82717948717949 86.46512820512822 27.530256410256413 76.40102564102564 27.530256410256413L23.432102564102564 27.530256410256413C20.506717948717952 27.530256410256413 18.13523076923077 25.158846153846156 18.13523076923077 22.233461538461537C18.13523076923077 19.308051282051284 20.506717948717952 16.936564102564105 23.432102564102564 16.936564102564105L63.15871794871796 16.936564102564105C67.54692307692308 16.936564102564105 71.10410256410256 13.379307692307693 71.10410256410256 8.991205128205129C71.10410256410256 4.603128205128206 67.54692307692308 1.0458717948717948 63.15871794871796 1.0458717948717948L23.432102564102564 1.0458717948717948C7.5414102564102565 1.0458717948717948 2.2445384615384616 13.457282051282052 2.2445384615384616 22.233461538461537C2.2445384615384616 31.009743589743593 7.5414102564102565 43.42102564102564 23.432102564102564 43.42102564102564L76.40102564102564 43.42102564102564C79.32641025641027 43.42102564102564 81.69794871794873 45.79256410256411 81.69794871794873 48.71794871794872C81.69794871794873 51.64333333333333 79.32641025641027 54.014871794871794 76.40102564102564 54.014871794871794L49.91666666666667 54.014871794871794z" fill="current"/></svg></g></g></g><g transform="translate(600.00, 400.00)"><g transformOrigin="center" transform="scale(1.00, 1.00)"><g transformOrigin="center" transform="rotate(90.00, 50, 50)" opacity="1"><svg width="100" height="100" viewBox="0 0 100 100" fill="#686D76" xmlns="http://www.w3.org/2000/svg"><circle cx="76.82820512820514" cy="21.65241025641026" r="16.239307692307694" stroke="current" stroke-width="4.22222" fill="current"/><circle cx="22.701589743589743" cy="75.78358974358974" r="16.239307692307694" stroke="current" stroke-width="4.22222" fill="current"/><rect x="60.58897435897436" y="59.54410256410257" width="32.47871794871795" height="32.47871794871795" stroke="current" stroke-width="4.22222" fill="current"/><rect x="6.4622820512820525" y="5.413102564102565" width="32.47871794871795" height="32.47871794871795" stroke="current" stroke-width="4.22222" fill="current"/></svg></g></g></g><g transform="translate(700.00, 400.00)"><g transformOrigin="center" transform="scale(1.00, 1.00)"><g transformOrigin="center" transform="rotate(270.00, 50, 50)" opacity="1"><svg width="100" height="100" viewBox="0 0 100 100" fill="#222831" xmlns="http://www.w3.org/2000/svg"><path d="M49.083421052631586 12.335105263157896L88.71473684210527 82.79078947368421H9.452L49.083421052631586 12.335105263157896z" stroke="current" stroke-width="4.13158" fill="current"/><path d="M61.041842105263164 66.4821052631579H37.1221052631579L49.0821052631579 44.7371052631579L61.041842105263164 66.4821052631579z" fill="current"/></svg></g></g></g><g transform="translate(0.00, 500.00)"><g transformOrigin="center" transform="scale(1.00, 1.00)"><g transformOrigin="center" transform="rotate(0.00, 50, 50)" opacity="1"><svg width="100" height="100" viewBox="0 0 100 100" fill="#393E46" xmlns="http://www.w3.org/2000/svg"><path d="M49.91666666666667 54.014871794871794C34.025897435897434 54.014871794871794 28.728974358974362 66.42615384615385 28.728974358974362 75.2023076923077C28.728974358974362 83.97871794871796 34.025897435897434 96.39000000000001 49.916410256410266 96.39000000000001L86.9948717948718 96.39000000000001L86.9948717948718 80.49923076923078L49.916410256410266 80.49923076923078C46.991025641025644 80.49923076923078 44.6197435897436 78.12794871794873 44.6197435897436 75.2023076923077C44.6197435897436 72.27692307692308 46.991025641025644 69.90564102564103 49.916410256410266 69.90564102564103L76.40102564102564 69.90564102564103C86.9948717948718 69.90564102564103 97.58871794871797 64.60871794871795 97.58871794871797 48.71794871794872C97.58871794871797 32.82717948717949 86.46512820512822 27.530256410256413 76.40102564102564 27.530256410256413L23.432102564102564 27.530256410256413C20.506717948717952 27.530256410256413 18.13523076923077 25.158846153846156 18.13523076923077 22.233461538461537C18.13523076923077 19.308051282051284 20.506717948717952 16.936564102564105 23.432102564102564 16.936564102564105L63.15871794871796 16.936564102564105C67.54692307692308 16.936564102564105 71.10410256410256 13.379307692307693 71.10410256410256 8.991205128205129C71.10410256410256 4.603128205128206 67.54692307692308 1.0458717948717948 63.15871794871796 1.0458717948717948L23.432102564102564 1.0458717948717948C7.5414102564102565 1.0458717948717948 2.2445384615384616 13.457282051282052 2.2445384615384616 22.233461538461537C2.2445384615384616 31.009743589743593 7.5414102564102565 43.42102564102564 23.432102564102564 43.42102564102564L76.40102564102564 43.42102564102564C79.32641025641027 43.42102564102564 81.69794871794873 45.79256410256411 81.69794871794873 48.71794871794872C81.69794871794873 51.64333333333333 79.32641025641027 54.014871794871794 76.40102564102564 54.014871794871794L49.91666666666667 54.014871794871794z" fill="current"/></svg></g></g></g><g transform="translate(100.00, 500.00)"><g transformOrigin="center" transform="scale(1.00, 1.00)"><g transformOrigin="center" transform="rotate(180.00, 50, 50)" opacity="1"><svg width="100" height="100" viewBox="0 0 100 100" fill="#393E46" xmlns="http://www.w3.org/2000/svg"><path d="M17.322108108108107 -0.0000035441621621621624L60.5654054054054 -0.000001653943243243243L98.40324324324324 27.027027027027025L44.34918918918918 64.86486486486487L82.18702702702701 97.29729729729729L38.943783783783786 97.29729729729729L1.105889189189189 64.86486486486487L55.16 27.027027027027025L17.322108108108107 -0.0000035441621621621624z" fill="current"/></svg></g></g></g><g transform="translate(200.00, 500.00)"><g transformOrigin="center" transform="scale(1.00, 1.00)"><g transformOrigin="center" transform="rotate(270.00, 50, 50)" opacity="1"><svg width="100" height="100" viewBox="0 0 100 100" fill="#686D76" xmlns="http://www.w3.org/2000/svg"><path d="M49.083421052631586 12.335105263157896L88.71473684210527 82.79078947368421H9.452L49.083421052631586 12.335105263157896z" stroke="current" stroke-width="4.13158" fill="current"/><path d="M61.041842105263164 66.4821052631579H37.1221052631579L49.0821052631579 44.7371052631579L61.041842105263164 66.4821052631579z" fill="current"/></svg></g></g></g><g transform="translate(300.00, 500.00)"><g transformOrigin="center" transform="scale(1.00, 1.00)"><g transformOrigin="center" transform="rotate(180.00, 50, 50)" opacity="1"><svg width="100" height="100" viewBox="0 0 100 100" fill="#686D76" xmlns="http://www.w3.org/2000/svg"><path d="M41.71473684210527 0H57.94263157894737L52.53342105263159 48.684210526315795H47.12394736842106L41.71473684210527 0z" fill="current"/><path d="M57.94605263157895 97.36842105263159L41.71815789473685 97.36842105263159L47.12736842105264 48.684210526315795L52.536842105263155 48.684210526315795L57.94605263157895 97.36842105263159z" fill="current"/><path d="M21.14515789473684 88.84657894736841L9.670157894736843 77.37157894736842L47.92 46.771578947368425L51.745000000000005 50.59657894736843L21.14515789473684 88.84657894736841z" fill="current"/><path d="M78.51815789473685 8.52184210526316L89.99315789473685 19.996815789473686L51.743157894736854 50.596842105263164L47.918157894736844 46.77184210526316L78.51815789473685 8.52184210526316z" fill="current"/><path d="M9.673105263157895 19.99663157894737L21.148078947368422 8.521657894736844L51.74815789473685 46.771578947368425L47.923157894736846 50.59657894736843L9.673105263157895 19.99663157894737z" fill="current"/><path d="M89.9978947368421 77.37184210526316L78.5228947368421 88.84684210526316L47.9228947368421 50.596842105263164L51.74789473684211 46.77184210526316L89.9978947368421 77.37184210526316z" fill="current"/><path d="M1.1513157894736843 56.798157894736846L1.1513157894736843 40.57026315789474L49.83552631578948 45.97947368421053L49.83552631578948 51.38894736842106L1.1513157894736843 56.798157894736846z" fill="current"/><path d="M98.51973684210527 40.57026315789474L98.51973684210527 56.79842105263159L49.83552631578948 51.38921052631579L49.83552631578948 45.97973684210527L98.51973684210527 40.57026315789474z" fill="current"/></svg></g></g></g><g transform="translate(400.00, 500.00)"><g transformOrigin="center" transform="scale(1.00, 1.00)"><g transformOrigin="center" transform="rotate(180.00, 50, 50)" opacity="1"><svg width="100" height="100" viewBox="0 0 100 100" fill="#393E46" xmlns="http://www.w3.org/2000/svg"><path d="M17.322108108108107 -0.0000035441621621621624L60.5654054054054 -0.000001653943243243243L98.40324324324324 27.027027027027025L44.34918918918918 64.86486486486487L82.18702702702701 97.29729729729729L38.943783783783786 97.29729729729729L1.105889189189189 64.86486486486487L55.16 27.027027027027025L17.322108108108107 -0.0000035441621621621624z" fill="current"/></svg></g></g></g><g transform="translate(500.00, 500.00)"><g transformOrigin="center" transform="scale(1.00, 1.00)"><g transformOrigin="center" transform="rotate(90.00, 50, 50)" opacity="1"><svg width="100" height="100" viewBox="0 0 100 100" fill="#686D76" xmlns="http://www.w3.org/2000/svg"><path d="M49.91666666666667 54.014871794871794C34.025897435897434 54.014871794871794 28.728974358974362 66.42615384615385 28.728974358974362 75.2023076923077C28.728974358974362 83.97871794871796 34.025897435897434 96.39000000000001 49.916410256410266 96.39000000000001L86.9948717948718 96.39000000000001L86.9948717948718 80.49923076923078L49.916410256410266 80.49923076923078C46.991025641025644 80.49923076923078 44.6197435897436 78.12794871794873 44.6197435897436 75.2023076923077C44.6197435897436 72.27692307692308 46.991025641025644 69.90564102564103 49.916410256410266 69.90564102564103L76.40102564102564 69.90564102564103C86.9948717948718 69.90564102564103 97.58871794871797 64.60871794871795 97.58871794871797 48.71794871794872C97.58871794871797 32.82717948717949 86.46512820512822 27.530256410256413 76.40102564102564 27.530256410256413L23.432102564102564 27.530256410256413C20.506717948717952 27.530256410256413 18.13523076923077 25.158846153846156 18.13523076923077 22.233461538461537C18.13523076923077 19.308051282051284 20.506717948717952 16.936564102564105 23.432102564102564 16.936564102564105L63.15871794871796 16.936564102564105C67.54692307692308 16.936564102564105 71.10410256410256 13.379307692307693 71.10410256410256 8.991205128205129C71.10410256410256 4.603128205128206 67.54692307692308 1.0458717948717948 63.15871794871796 1.0458717948717948L23.432102564102564 1.0458717948717948C7.5414102564102565 1.0458717948717948 2.2445384615384616 13.457282051282052 2.2445384615384616 22.233461538461537C2.2445384615384616 31.009743589743593 7.5414102564102565 43.42102564102564 23.432102564102564 43.42102564102564L76.40102564102564 43.42102564102564C79.32641025641027 43.42102564102564 81.69794871794873 45.79256410256411 81.69794871794873 48.71794871794872C81.69794871794873 51.64333333333333 79.32641025641027 54.014871794871794 76.40102564102564 54.014871794871794L49.91666666666667 54.014871794871794z" fill="current"/></svg></g></g></g><g transform="translate(600.00, 500.00)"><g transformOrigin="center" transform="scale(1.00, 1.00)"><g transformOrigin="center" transform="rotate(270.00, 50, 50)" opacity="1"><svg width="100" height="100" viewBox="0 0 100 100" fill="#393E46" xmlns="http://www.w3.org/2000/svg"><path d="M41.71473684210527 0H57.94263157894737L52.53342105263159 48.684210526315795H47.12394736842106L41.71473684210527 0z" fill="current"/><path d="M57.94605263157895 97.36842105263159L41.71815789473685 97.36842105263159L47.12736842105264 48.684210526315795L52.536842105263155 48.684210526315795L57.94605263157895 97.36842105263159z" fill="current"/><path d="M21.14515789473684 88.84657894736841L9.670157894736843 77.37157894736842L47.92 46.771578947368425L51.745000000000005 50.59657894736843L21.14515789473684 88.84657894736841z" fill="current"/><path d="M78.51815789473685 8.52184210526316L89.99315789473685 19.996815789473686L51.743157894736854 50.596842105263164L47.918157894736844 46.77184210526316L78.51815789473685 8.52184210526316z" fill="current"/><path d="M9.673105263157895 19.99663157894737L21.148078947368422 8.521657894736844L51.74815789473685 46.771578947368425L47.923157894736846 50.59657894736843L9.673105263157895 19.99663157894737z" fill="current"/><path d="M89.9978947368421 77.37184210526316L78.5228947368421 88.84684210526316L47.9228947368421 50.596842105263164L51.74789473684211 46.77184210526316L89.9978947368421 77.37184210526316z" fill="current"/><path d="M1.1513157894736843 56.798157894736846L1.1513157894736843 40.57026315789474L49.83552631578948 45.97947368421053L49.83552631578948 51.38894736842106L1.1513157894736843 56.798157894736846z" fill="current"/><path d="M98.51973684210527 40.57026315789474L98.51973684210527 56.79842105263159L49.83552631578948 51.38921052631579L49.83552631578948 45.97973684210527L98.51973684210527 40.57026315789474z" fill="current"/></svg></g></g></g><g transform="translate(700.00, 500.00)"><g transformOrigin="center" transform="scale(1.00, 1.00)"><g transformOrigin="center" transform="rotate(0.00, 50, 50)" opacity="1"><svg width="100" height="100" viewBox="0 0 100 100" fill="#686D76" xmlns="http://www.w3.org/2000/svg"><path d="M1.1513157894736843 10.855263157894738V0H98.84868421052633V10.855263157894738C77.13815789473685 10.855263157894738 60.85526315789474 27.138157894736842 60.85526315789474 43.42105263157895C60.85526315789474 59.703947368421055 77.13815789473685 75.98684210526316 98.84868421052633 75.98684210526316V86.8421052631579H1.1513157894736843V75.98684210526316C22.861868421052634 75.98684210526316 39.14473684210527 59.703947368421055 39.14473684210527 43.42105263157895C39.14473684210527 27.138157894736842 22.861868421052634 10.855263157894738 1.1513157894736843 10.855263157894738z" fill="current"/></svg></g></g></g></svg>